<?xml version="1.0" encoding="utf-8"?>
<!-- Generator: Adobe Illustrator 27.0.0, SVG Export Plug-In . SVG Version: 6.00 Build 0)  -->
<svg version="1.1" id="Octopus" xmlns="http://www.w3.org/2000/svg" xmlns:xlink="http://www.w3.org/1999/xlink" x="0px" y="0px"
	 viewBox="0 0 128 128" style="enable-background:new 0 0 128 128;" xml:space="preserve">
<style type="text/css">
	.st0{clip-path:url(#SVGID_00000179626600738260960190000017290033253191850657_);}
	.st1{fill:#E56512;}
	.st2{fill:#993300;}
	.st3{fill:#FEFEFE;}
	.st4{fill:#6E068A;}
	.st5{fill:#C24700;}
	.st6{fill:#913A0F;}
</style>
<g id="Octopus-2">
	<g>
		<defs>
			<path id="SVGID_1_" d="M95.7,92.7c-2,1.2-3.8,2.3-5.4,1.6c-1.6-0.7-2.4-2.7-2.3-4.8c0.1-1.8,1.2-3.5,2.6-4.7
				c29.9-25.2,9.7-61-26.5-61l0,0l0,0l0,0l0,0c-36.2,0-56.5,35.8-26.5,61c1.4,1.2,2.4,2.8,2.6,4.7c0.2,2.1-0.7,4.1-2.3,4.8
				c-1.6,0.7-3.4-0.4-5.4-1.6c-1.5-0.9-3.9-2.6-6-5.7c-0.4,0.3-0.9,0.7-1.4,1.3c-2.2,2.8-2,7.1-1,10c2.7,8,14.1,11.9,23.6,2.9
				c0.5-0.4-1.8,6.6-0.7,9.1c0.1,0.2,0.2,0.3,0.3,0.3c6.1,1.9,16,0.2,16.8-7.2c0.8,7.4,10.8,9.1,16.8,7.2c0.2-0.1,0.3-0.2,0.3-0.3
				c1.1-2.6-1.1-9.5-0.7-9.1c9.5,9,20.9,5.1,23.6-2.9c1-3,1.2-7.3-1-10c-0.5-0.6-1-1-1.4-1.3C99.5,90.1,97.2,91.8,95.7,92.7z"/>
		</defs>
		<clipPath id="SVGID_00000093153117005822459330000018013285717967083158_">
			<use xlink:href="#SVGID_1_"  style="overflow:visible;"/>
		</clipPath>
		<g style="clip-path:url(#SVGID_00000093153117005822459330000018013285717967083158_);">
			<rect id="Body_Color" x="23" y="45.7" class="st1" width="82" height="65.7"/>
			<g id="Spots">
				<path class="st2" d="M45.5,102.9c-1.4-3.4,3.3-6.9,5.8-3.1c1.8,2.8-1.9,5.8-4.3,4.7C46.5,103.9,46,103.4,45.5,102.9z"/>
				<path class="st2" d="M23.8,98.1c0.4-0.1,1.6-0.4,2.9,0.1c0.4,0.1,2.3,0.8,2.6,2.6c0.3,1.7-1.1,3-1.2,3.1
					c-0.5-0.6-3.6-0.6-4.5-1.9C22.7,100.9,24.1,98.5,23.8,98.1L23.8,98.1z"/>
				<path class="st2" d="M33.3,106.1c1.2-1.2,3.8-1.3,4.8,0c-0.6,1-1.7,0.6-2.5,0.7C34.8,107,33.8,106.9,33.3,106.1L33.3,106.1z"/>
				<path class="st2" d="M82.9,99.4c-4.1,0-4.2-6.3,0.3-6.2C87.3,93.2,87.6,99.4,82.9,99.4z"/>
				<path class="st2" d="M83.4,107.8c0,1.8-1.2,3.1-3,3.1c-1.9,0-3.2-1.3-3.2-3.1c0-1.9,1.3-3.2,3.1-3.2
					C82.2,104.7,83.4,105.9,83.4,107.8L83.4,107.8z"/>
				<path class="st2" d="M93.2,98.2c1.9,0,3.2,1.2,3.2,3c0,2-1.2,3.4-3,3.4c-1.9,0-3.3-1.4-3.3-3.3C90.1,99.2,91.2,98.2,93.2,98.2z"
					/>
				<path class="st2" d="M60.1,107.8c0,1.8-1.2,3.1-3,3.1c-1.9,0-3.2-1.3-3.2-3.1c0-1.9,1.3-3.2,3.1-3.2
					C58.9,104.7,60,105.9,60.1,107.8L60.1,107.8z"/>
				<path class="st2" d="M74,101.3c0,1.7-1.5,3.4-3.1,3.3c-1.9-0.1-3.2-1.3-3.3-3.2c-0.1-1.7,1.5-3.2,3.3-3.2
					C72.8,98.2,74,99.4,74,101.3L74,101.3z"/>
				<path class="st2" d="M63.7,96.3c0,1.8-1.2,3.1-3,3.1c-1.9,0-3.2-1.3-3.2-3.1c0-1.9,1.3-3.2,3.1-3.2
					C62.6,93.2,63.7,94.3,63.7,96.3L63.7,96.3z"/>
				<path class="st2" d="M51.7,101.4c0,2-1.3,3.3-3.2,3.4c-2,0-3.5-1.4-3.5-3.3c0-2,1.3-3.4,3.3-3.4C50.4,98,51.7,99.3,51.7,101.4z"
					/>
				<path class="st2" d="M41.6,95.6c0,2.2-1.4,3.6-3.5,3.6c-2.2,0-3.8-1.5-3.8-3.6c0-2.2,1.5-3.7,3.6-3.7
					C40.2,91.9,41.6,93.3,41.6,95.6L41.6,95.6z"/>
				<path class="st2" d="M49.3,112.2c0,2-1.3,3.3-3.2,3.4c-2,0-3.5-1.4-3.5-3.3c0-2,1.3-3.4,3.3-3.4C48,108.8,49.2,110,49.3,112.2z"
					/>
				<path class="st2" d="M109.5,96.5c0,2.4-1.3,4-3.2,4.1c-2,0-3.5-1.7-3.5-4c0-2.4,1.4-4.1,3.4-4.1
					C108.2,92.4,109.5,93.9,109.5,96.5z"/>
			</g>
			<g id="Eyes">
				<path id="Mask" class="st2" d="M64.6,66c-0.2,0.2-0.4,0.3-0.6,0.3c-0.2,0-0.4-0.2-0.6-0.3c-8.6-11.5-26.5-4.8-26.5,10.7
					c0,12.7,19,18.9,26.3,8.1c0,0,0,0,0,0c0-0.1,0.4-0.4,0.8-0.4c0.4,0,0.8,0.3,0.8,0.4c0,0,0,0,0,0c7.3,10.8,26.3,4.6,26.3-8.1
					C91.1,61.2,73.2,54.6,64.6,66L64.6,66z"/>
				<g id="Whites">
					<circle class="st3" cx="51.6" cy="74.5" r="11.1"/>
					<circle class="st3" cx="76.4" cy="74.5" r="11.1"/>
				</g>
				<g id="Pupils">
					<path class="st4" d="M54.6,65.5c-9-2.4-11.8,10.3-2.2,10.9C58.7,77.2,61.3,67,54.6,65.5z"/>
					<path class="st4" d="M73.4,65.5c9-2.4,11.8,10.3,2.2,10.9C69.3,77.2,66.7,67,73.4,65.5z"/>
				</g>
			</g>
		</g>
	</g>
</g>
<g id="Shell">
	<path class="st5" d="M96.6,25.2c-8.5-4.3-20.1-8.5-32.6-8.6c-12.5,0.1-24.1,4.3-32.6,8.6C23.9,29.1,19.3,37,19.7,45.4
		c0.3,7.6,0.9,15.9,0.6,22.2c-0.1,2.9,3.2,4.5,5.4,2.7l15.9-15.8c3.4-3.9,8.3,1.6,13.5,1.6h17.8c5.2,0,10.1-5.5,13.5-1.6l15.9,15.8
		c2.2,1.9,5.5,0.2,5.4-2.7c-0.3-6.3,0.2-14.5,0.6-22.2C108.7,37,104.1,29.1,96.6,25.2L96.6,25.2z"/>
	<path class="st6" d="M104.4,68.5c-0.1,0-0.1,0-0.2-0.1L88.5,52.9c-1.4-1.5-3.1-2.3-5-2.3s-3.9,0.8-5.8,1.6
		c-1.6,0.7-3.3,1.4-4.8,1.4H55.1c-1.4,0-3.1-0.7-4.8-1.4c-1.9-0.8-3.8-1.6-5.8-1.6s-3.7,0.8-5,2.3L23.8,68.5
		c-0.1,0.1-0.2,0.1-0.2,0.1c-0.1,0-0.2-0.1-0.3-0.2c-0.1-0.1-0.1-0.2-0.1-0.3c0.3-5.4-0.1-12-0.4-18.4c-0.1-1.3-0.1-2.7-0.2-4
		c-0.3-7.3,3.7-14.2,10.2-17.5c7.3-3.7,18.6-8.6,31.3-8.8c12.6,0.2,24,5.1,31.3,8.8c6.5,3.3,10.5,10.2,10.2,17.5
		c-0.1,1.3-0.1,2.7-0.2,4c-0.3,6.4-0.6,13.1-0.4,18.4c0,0.1,0,0.2-0.1,0.3C104.7,68.5,104.5,68.5,104.4,68.5L104.4,68.5z"/>
	<g>
		<path class="st5" d="M75.3,32.6c-0.1-0.3-0.3-0.3-0.5-0.3h-8.1h-0.7H64l0,0H64h-1.9h-8.8c-0.2,0-0.4,0-0.5,0.3L46,47.1
			c-0.2,0.3,0,0.4,0.2,0.4c0.7,0.1,1.3,0.2,2,0.4c1.5,0.5,2.9,1.1,4.4,1.7c0.9,0.3,1.7,0.7,2.7,0.7c2.7,0,5.3,0,8,0h1.4
			c2.7,0,5.3,0,8,0c1,0,1.8-0.4,2.7-0.7c1.5-0.6,2.9-1.2,4.4-1.7c0.6-0.2,1.3-0.4,2-0.4c0.3,0,0.4-0.1,0.2-0.4L75.3,32.6L75.3,32.6z
			"/>
		<path class="st5" d="M48.3,30.6L48,30.3c-1.4-1.4-2.7-2.8-4.1-4.1c-4.8,1.5-8.2,3.2-10.2,4.4c-1.3,0.8-2.3,1.4-3.4,2.4
			c-1.5,1.5-2.7,3.2-3.6,5.1C25.9,40,25.5,42,25.4,44c0,1.2,0.1,2.4,0.1,3.6c0.1,1,0.1,2,0.2,3c0.1,1.2,0.2,3,0.2,5.2
			c0,1.3,0.1,2.7,0.1,4l0.1,1.9c4.7-4.4,9.3-8.9,14-13.3c2.7-5.8,5.3-11.5,7.9-17.3C48.1,31,48.2,30.8,48.3,30.6z"/>
		<path class="st5" d="M101.3,38.1c-0.9-1.9-2-3.7-3.6-5.1c-1.1-1-2.1-1.7-3.4-2.4c-2-1.2-5.4-2.9-10.2-4.4L80,30.3
			c-0.1,0.1-0.2,0.2-0.3,0.3c0.1,0.2,0.2,0.3,0.2,0.5c2.7,5.8,5.3,11.5,7.9,17.3c4.7,4.4,9.3,8.9,14,13.3l0.1-1.9
			c0-1.3,0.1-2.7,0.1-4c0.1-2.2,0.2-3.9,0.2-5.2c0.1-1,0.1-2,0.1-3c0.1-1.2,0.2-2.4,0.1-3.6C102.5,42,102.1,40,101.3,38.1
			L101.3,38.1z"/>
		<path class="st5" d="M64.1,22.4h-0.2c-4.9,0-9.9,0.7-14.9,2.2c1,1,1.9,1.9,2.8,2.8c0.1,0.1,0.3,0.2,0.4,0.2c3.8,0,7.5,0,11.3,0
			l0,0h0.7l0,0c3.8,0,7.6,0,11.4,0c0.2,0,0.3,0,0.4-0.2c0.9-0.9,1.8-1.8,2.8-2.8C74,23.1,69,22.4,64.1,22.4L64.1,22.4z"/>
	</g>
</g>
</svg>
