<?xml version="1.0" encoding="utf-8"?>
<!-- Generator: Adobe Illustrator 27.0.0, SVG Export Plug-In . SVG Version: 6.00 Build 0)  -->
<svg version="1.1" id="Background" xmlns="http://www.w3.org/2000/svg" xmlns:xlink="http://www.w3.org/1999/xlink" x="0px" y="0px"
	 viewBox="0 0 128 128" style="enable-background:new 0 0 128 128;" xml:space="preserve">
<style type="text/css">
	.st0{clip-path:url(#SVGID_00000029040787205282184850000007733300315209428877_);}
	.st1{fill:#252324;}
	.st2{fill:#2E2E2E;}
</style>
<g>
	<defs>
		<rect id="SVGID_1_" x="0" y="0" width="128" height="128"/>
	</defs>
	<clipPath id="SVGID_00000134927860027878982920000005639647752878790786_">
		<use xlink:href="#SVGID_1_"  style="overflow:visible;"/>
	</clipPath>
	<g style="clip-path:url(#SVGID_00000134927860027878982920000005639647752878790786_);">
		<rect x="-27.4" y="-14.9" class="st1" width="160" height="184"/>
		<path class="st2" d="M101.3,0.1c0.1,7.1,0.2,14.3,0.3,21.4c0.1,0.1,0.3,0.1,0.1,0c5.8-3.8,11.6-7.5,17.4-11.3
			C113.9,7.4,106.5,2.9,101.3,0.1"/>
		<polygon class="st2" points="74.1,117.8 60.1,147.8 55.6,115.5 		"/>
		<path class="st2" d="M0,20.7V1.2l15.7,7.2L0,20.7L0,20.7z"/>
		<path class="st2" d="M17.9,112.8c-6,4-11.9,7.9-17.9,11.9v-19.4L17.9,112.8L17.9,112.8z"/>
		<path class="st2" d="M89,21c-3.9-7-7.8-14-11.6-21h17.1L89,21L89,21z"/>
		<path class="st2" d="M35.1,0c-1.1,2.8-2.2,5.7-3.4,8.5L24.8,0C24.8,0,35.1,0,35.1,0z"/>
		<path class="st2" d="M125.2,67.9c4,6.8,8,13.5,12,20.3l-22-7.4L125.2,67.9L125.2,67.9z"/>
		<path class="st2" d="M0,51.5c3,1.8,6,3.6,9.1,5.3c-3,0.5-6,1-9.1,1.5L0,51.5L0,51.5z"/>
		<path class="st2" d="M30.5,128c2.8-2.2,5.5-4.3,8.3-6.5c0.3,2.2,0.6,4.3,0.8,6.5H30.5z"/>
		<path class="st2" d="M124.5,31.2l3.5,3.1v-5.7L124.5,31.2L124.5,31.2z"/>
		<path class="st2" d="M56.8,0c-1.5,1.2-3,2.4-4.5,3.7c0-1.2,0-2.5-0.1-3.7C52.2,0,56.8,0,56.8,0z"/>
		<path class="st2" d="M25.6,64.9c2.8,6.6,5.6,13.2,8.3,19.7c-7.4-1.2-14.8-2.5-22.2-3.8C14.5,77.4,22.8,68.4,25.6,64.9z"/>
		<path class="st2" d="M119.6,113.8c-5.8,3.7-11.6,7.4-17.8,11.4l-1.6-24.2L119.6,113.8z"/>
		<polygon class="st2" points="88.6,121.7 72.3,100.7 97,98.8 		"/>
		<polygon class="st2" points="62.8,71.7 48.9,101.7 44.4,69.4 		"/>
		<path class="st2" d="M42.3,105.7c-6,4-11.9,7.9-17.9,11.9V98.1L42.3,105.7L42.3,105.7z"/>
		<path class="st2" d="M104.1,53.3c-3.9-7-7.8-14-11.6-21h17.1L104.1,53.3L104.1,53.3z"/>
		<path class="st2" d="M32.3,27.6c4,6.8,8,13.5,12,20.3l-22-7.4L32.3,27.6L32.3,27.6z"/>
		<path class="st2" d="M66.7,19.4c2.8,6.6,5.6,13.2,8.3,19.7c-7.4-1.2-14.8-2.5-22.2-3.8C55.7,31.8,64,22.9,66.7,19.4z"/>
		<path class="st2" d="M108.6,76.8c-5.8,3.7-11.6,7.4-17.8,11.4L89.1,64L108.6,76.8z"/>
		<polygon class="st2" points="77.3,75.6 61,54.5 85.7,52.7 		"/>
	</g>
</g>
</svg>
